<svg width="1144" height="155" viewBox="0 0 1144 155" fill="none" xmlns="http://www.w3.org/2000/svg">
<g opacity="0.3">
<rect x="0.403101" y="103.359" width="51.9634" height="51.0594" stroke="white" stroke-width="0.806201"/>
<rect x="0.403101" y="52.3001" width="51.9634" height="51.0594" stroke="white" stroke-width="0.806201"/>
<rect x="0.403101" y="1.2405" width="51.9634" height="51.0594" stroke="white" stroke-width="0.806201"/>
<rect x="156.293" y="103.359" width="51.9634" height="51.0594" stroke="white" stroke-width="0.806201"/>
<rect x="156.293" y="52.3001" width="51.9634" height="51.0594" stroke="white" stroke-width="0.806201"/>
<rect x="156.293" y="1.2405" width="51.9634" height="51.0594" stroke="white" stroke-width="0.806201"/>
<rect x="312.183" y="103.359" width="51.9634" height="51.0594" stroke="white" stroke-width="0.806201"/>
<rect x="312.183" y="52.3001" width="51.9634" height="51.0594" stroke="white" stroke-width="0.806201"/>
<rect x="312.183" y="1.2405" width="51.9634" height="51.0594" stroke="white" stroke-width="0.806201"/>
<rect x="468.073" y="103.359" width="51.9634" height="51.0594" stroke="white" stroke-width="0.806201"/>
<rect x="468.073" y="52.3001" width="51.9634" height="51.0594" stroke="white" stroke-width="0.806201"/>
<rect x="468.073" y="1.2405" width="51.9634" height="51.0594" stroke="white" stroke-width="0.806201"/>
<rect x="623.964" y="103.359" width="51.9634" height="51.0594" stroke="white" stroke-width="0.806201"/>
<rect x="623.964" y="52.3001" width="51.9634" height="51.0594" stroke="white" stroke-width="0.806201"/>
<rect x="623.964" y="1.2405" width="51.9634" height="51.0594" stroke="white" stroke-width="0.806201"/>
<rect x="779.853" y="103.359" width="51.9634" height="51.0594" stroke="white" stroke-width="0.806201"/>
<rect x="779.853" y="52.3001" width="51.9634" height="51.0594" stroke="white" stroke-width="0.806201"/>
<rect x="779.853" y="1.2405" width="51.9634" height="51.0594" stroke="white" stroke-width="0.806201"/>
<rect x="935.744" y="103.359" width="51.9634" height="51.0594" stroke="white" stroke-width="0.806201"/>
<rect x="935.744" y="52.3001" width="51.9634" height="51.0594" stroke="white" stroke-width="0.806201"/>
<rect x="935.744" y="1.2405" width="51.9634" height="51.0594" stroke="white" stroke-width="0.806201"/>
<rect x="52.366" y="103.359" width="51.9634" height="51.0594" stroke="white" stroke-width="0.806201"/>
<rect x="52.366" y="52.3001" width="51.9634" height="51.0594" stroke="white" stroke-width="0.806201"/>
<rect x="52.366" y="1.2405" width="51.9634" height="51.0594" stroke="white" stroke-width="0.806201"/>
<rect x="208.257" y="103.359" width="51.9634" height="51.0594" stroke="white" stroke-width="0.806201"/>
<rect x="208.257" y="52.3001" width="51.9634" height="51.0594" stroke="white" stroke-width="0.806201"/>
<rect x="208.257" y="1.2405" width="51.9634" height="51.0594" stroke="white" stroke-width="0.806201"/>
<rect x="364.146" y="103.359" width="51.9634" height="51.0594" stroke="white" stroke-width="0.806201"/>
<rect x="364.146" y="52.3001" width="51.9634" height="51.0594" stroke="white" stroke-width="0.806201"/>
<rect x="364.146" y="1.2405" width="51.9634" height="51.0594" stroke="white" stroke-width="0.806201"/>
<rect x="520.037" y="103.359" width="51.9634" height="51.0594" stroke="white" stroke-width="0.806201"/>
<rect x="520.037" y="52.3001" width="51.9634" height="51.0594" stroke="white" stroke-width="0.806201"/>
<rect x="520.037" y="1.2405" width="51.9634" height="51.0594" stroke="white" stroke-width="0.806201"/>
<rect x="675.927" y="103.359" width="51.9634" height="51.0594" stroke="white" stroke-width="0.806201"/>
<rect x="675.927" y="52.3001" width="51.9634" height="51.0594" stroke="white" stroke-width="0.806201"/>
<rect x="675.927" y="1.2405" width="51.9634" height="51.0594" stroke="white" stroke-width="0.806201"/>
<rect x="831.816" y="103.359" width="51.9634" height="51.0594" stroke="white" stroke-width="0.806201"/>
<rect x="831.816" y="52.3001" width="51.9634" height="51.0594" stroke="white" stroke-width="0.806201"/>
<rect x="831.816" y="1.2405" width="51.9634" height="51.0594" stroke="white" stroke-width="0.806201"/>
<rect x="987.707" y="103.359" width="51.9634" height="51.0594" stroke="white" stroke-width="0.806201"/>
<rect x="987.707" y="52.3001" width="51.9634" height="51.0594" stroke="white" stroke-width="0.806201"/>
<rect x="987.707" y="1.2405" width="51.9634" height="51.0594" stroke="white" stroke-width="0.806201"/>
<rect x="104.33" y="103.359" width="51.9634" height="51.0594" stroke="white" stroke-width="0.806201"/>
<rect x="104.33" y="52.3001" width="51.9634" height="51.0594" stroke="white" stroke-width="0.806201"/>
<rect opacity="0.5" x="104.33" y="1.2405" width="51.9634" height="51.0594" stroke="white" stroke-width="0.806201"/>
<rect x="260.22" y="103.359" width="51.9634" height="51.0594" stroke="white" stroke-width="0.806201"/>
<rect x="260.22" y="52.3001" width="51.9634" height="51.0594" stroke="white" stroke-width="0.806201"/>
<rect x="260.22" y="1.2405" width="51.9634" height="51.0594" stroke="white" stroke-width="0.806201"/>
<rect x="416.11" y="103.359" width="51.9634" height="51.0594" stroke="white" stroke-width="0.806201"/>
<rect x="416.11" y="52.3001" width="51.9634" height="51.0594" stroke="white" stroke-width="0.806201"/>
<rect opacity="0.5" x="416.11" y="1.2405" width="51.9634" height="51.0594" stroke="white" stroke-width="0.806201"/>
<rect x="572" y="103.359" width="51.9634" height="51.0594" stroke="white" stroke-width="0.806201"/>
<rect x="572" y="52.3001" width="51.9634" height="51.0594" stroke="white" stroke-width="0.806201"/>
<rect opacity="0.5" x="572" y="1.2405" width="51.9634" height="51.0594" stroke="white" stroke-width="0.806201"/>
<rect x="727.89" y="103.359" width="51.9634" height="51.0594" stroke="white" stroke-width="0.806201"/>
<rect x="727.89" y="52.3001" width="51.9634" height="51.0594" stroke="white" stroke-width="0.806201"/>
<rect opacity="0.5" x="727.89" y="1.2405" width="51.9634" height="51.0594" stroke="white" stroke-width="0.806201"/>
<rect x="883.78" y="103.359" width="51.9634" height="51.0594" stroke="white" stroke-width="0.806201"/>
<rect x="883.78" y="52.3001" width="51.9634" height="51.0594" stroke="white" stroke-width="0.806201"/>
<rect x="883.78" y="1.2405" width="51.9634" height="51.0594" stroke="white" stroke-width="0.806201"/>
<rect x="1039.67" y="103.359" width="51.9634" height="51.0594" stroke="white" stroke-width="0.806201"/>
<rect opacity="0.5" x="1091.63" y="103.359" width="51.9634" height="51.0594" stroke="white" stroke-width="0.806201"/>
<rect x="1039.67" y="52.3001" width="51.9634" height="51.0594" stroke="white" stroke-width="0.806201"/>
<rect x="1091.63" y="52.3001" width="51.9634" height="51.0594" stroke="white" stroke-width="0.806201"/>
<rect x="1039.67" y="1.2405" width="51.9634" height="51.0594" stroke="white" stroke-width="0.806201"/>
<rect x="1091.63" y="1.2405" width="51.9634" height="51.0594" stroke="white" stroke-width="0.806201"/>
</g>
</svg>
